<?xml version="1.0" encoding="utf-8"?>
<!-- Generator: Adobe Illustrator 23.0.2, SVG Export Plug-In . SVG Version: 6.00 Build 0)  -->
<svg version="1.1" xmlns="http://www.w3.org/2000/svg" xmlns:xlink="http://www.w3.org/1999/xlink" x="0px" y="0px"
	 viewBox="0 0 1920 1080" style="enable-background:new 0 0 1920 1080;" xml:space="preserve">
<style type="text/css">
	.st0{fill:url(#SVGID_1_);stroke:#EADBDB;stroke-miterlimit:10;}
	.st1{fill:#F2DFE4;}
	.st2{display:none;}
</style>
<g id="Layer_2">
	
		<linearGradient id="SVGID_1_" gradientUnits="userSpaceOnUse" x1="960.5" y1="1076.1661" x2="960.5" y2="-9.3339" gradientTransform="matrix(-1 0 0 -1 1921 1072.5)">
		<stop  offset="0" style="stop-color:#EADBDB"/>
		<stop  offset="0.8666" style="stop-color:#9192BB"/>
	</linearGradient>
	<polygon class="st0" points="0,-6.5 1921,-6.5 1921,1079 0,1079 	"/>
</g>
<g id="Layer_1">
	<g>
		<path class="st1" d="M0.5,520.55c38.12-3.84,90.11-15.6,119.5-55.55c36.97-50.24,3.33-97.69,30.5-123.71
			c51.87-49.67,200.85,81.61,456,116.91c228.38,31.59,291.32-125.86,476.95-181.96c58.24-17.6,107.46-31.88,168.05-18.46
			C1406.94,292.2,1427.15,464.18,1543,468c83.22,2.75,106.65-84.89,219.5-91.08c67.03-3.68,122.96,23.71,158,45.65
			c0,218.98,0,437.95,0,656.93H0.5V520.55z"/>
		<path class="st2" d="M1921,1080H0V630.52l0.06-0.11c39.08-75.98,89.65-124.5,150.29-144.2c38.43-12.49,75.94-14.48,118.02-6.28
			c37.94,7.4,76.33,22.49,116.98,38.47c61.63,24.23,131.48,51.7,221.21,61.67c141.44,15.71,219.61-27.01,302.38-72.25
			c42.28-23.11,86-47,140.07-64.24c61.13-19.49,127.38-27.49,202.52-24.46c97.41,3.92,235.66,34.59,511.09,95.68
			c52.73,11.7,105.9,24.03,158.01,36.66l0.38,0.09V1080z M1,1079h1919V552.35c-51.98-12.6-105.01-24.9-157.61-36.56
			c-275.37-61.08-413.59-91.74-510.91-95.66c-167.66-6.75-256.32,41.71-342.07,88.58c-70.92,38.76-138.5,75.69-245.29,75.69
			c-18.04,0-37.18-1.05-57.67-3.33c-89.87-9.98-159.78-37.47-221.47-61.73c-80.94-31.82-150.84-59.31-234.32-32.18
			C90.3,506.77,39.95,555.09,1,630.76V1079z"/>
	</g>
</g>
</svg>
