<?xml version="1.0" encoding="utf-8"?>
<!-- Generator: Adobe Illustrator 23.0.2, SVG Export Plug-In . SVG Version: 6.00 Build 0)  -->
<svg version="1.1" xmlns="http://www.w3.org/2000/svg" xmlns:xlink="http://www.w3.org/1999/xlink" x="0px" y="0px"
	 viewBox="0 0 1920 1080" style="enable-background:new 0 0 1920 1080;" xml:space="preserve">
<style type="text/css">
	.st0{display:none;}
	.st1{display:inline;fill:#F56E56;stroke:#000000;stroke-miterlimit:10;}
	.st2{display:inline;fill:#F34A2C;stroke:#000000;stroke-miterlimit:10;}
	.st3{display:inline;}
	.st4{fill:#F34A2C;}
	.st5{fill:none;stroke:#000000;stroke-miterlimit:10;}
	.st6{fill:url(#SVGID_1_);}
	.st7{display:none;fill:url(#SVGID_2_);}
	.st8{display:none;fill:#F65234;}
	.st9{opacity:0.1;fill:#F65234;enable-background:new    ;}
	.st10{opacity:0.35;}
	.st11{opacity:0.2;fill:#F65234;enable-background:new    ;}
	.st12{fill:none;stroke:#535461;stroke-width:2;stroke-miterlimit:10;}
	.st13{fill:#F65234;}
	.st14{opacity:0.25;enable-background:new    ;}
	.st15{display:none;opacity:0.25;fill:#B83D27;stroke:#B83D27;stroke-miterlimit:10;enable-background:new    ;}
	.st16{opacity:0.1;enable-background:new    ;}
	.st17{fill:#FFD037;}
	.st18{fill:#65617D;}
	.st19{fill:#9D9CB5;}
	.st20{fill:url(#SVGID_3_);}
	.st21{fill:#F6F7F9;}
	.st22{fill:url(#SVGID_4_);}
	.st23{fill:url(#SVGID_5_);}
	.st24{fill:url(#SVGID_6_);}
	.st25{fill:url(#SVGID_7_);}
	.st26{fill:url(#SVGID_8_);}
	.st27{fill:url(#SVGID_9_);}
	.st28{fill:#2D293D;}
	.st29{fill:#575988;}
	.st30{opacity:0.05;enable-background:new    ;}
	.st31{opacity:0.05;}
	.st32{fill:#FFCDD3;}
	.st33{fill:#DCE6F2;}
	.st34{fill:#656691;}
	.st35{opacity:0.1;}
	.st36{display:inline;fill:#F34A2C;}
	.st37{font-family:'Gabriola';}
	.st38{font-size:125.0276px;}
	.st39{font-family:'Microsoft-Yi-Baiti';}
	.st40{font-size:48px;}
	.st41{display:inline;fill:#E89470;}
	.st42{display:inline;fill:#FFFFFF;}
	.st43{font-family:'CambriaMath';}
	.st44{font-size:84.4833px;}
	.st45{font-family:'Calibri-Light';}
	.st46{font-size:24px;}
	.st47{display:inline;fill:#656691;}
</style>
<g id="Layer_3" class="st0">
	<path class="st1" d="M880.5-15.5c-26.63-0.33-68.51-0.64-120,0c-84.66,1.05-126.98,1.57-138,6c-120.22,48.34-151.4,636.6,115,796
		c172.49,103.21,292.69-79.31,627-3c261.45,59.68,396.67,218.96,490,152c33.34-23.92,46.89-99.61,74-251
		c17.41-97.2,30.66-171.24,34-275c3.2-99.44-2.23-241.55-43-409"/>
</g>
<g id="Layer_2" class="st0">
	<ellipse class="st2" cx="1411" cy="435.5" rx="689.5" ry="463"/>
	<ellipse class="st2" cx="765" cy="807" rx="123.5" ry="68.5"/>
	<circle class="st2" cx="961" cy="889" r="43.5"/>
</g>
<g id="Layer_1" class="st0">
	<g id="XMLID_1_" class="st3">
		<g>
			<path class="st4" d="M757.94-53.11c3.48-4.03,10.1-5.14,13.51-0.77C766.95-53.65,762.44-53.4,757.94-53.11z"/>
		</g>
		<g>
			<path class="st5" d="M758.64-44.65C786.6-27.51,813-7.1,837.3,16.16c27.21,26.04,53.42,60,53.48,100.57
				c0.03,26.16-10.92,50.49-20.78,74.14c-18.06,43.33-33.38,88.62-39.76,136c-9.55,71,1.4,143.62,19.01,212.48
				c16.35,63.93,38.89,126.77,74.72,179.29c35.84,52.51,86.17,94.18,143.56,106.57c62.49,13.49,126.73-8.23,185.68-35.82
				c44.91-21.01,92.69-46.12,139.94-33.9c39.02,10.09,69.33,43.75,98.77,74.58c50.85,53.25,109.26,103.96,177.92,113.02
				c55.75,7.36,111.53-13.87,162.34-41.31c34.23-18.49,67.33-39.96,101.53-58.42c16.56-8.94,33.38-17.17,50.71-24.01"/>
			<path class="st5" d="M755.89-52.99c0.68-0.04,1.37-0.09,2.05-0.12c4.5-0.29,9.01-0.54,13.51-0.77
				c37.39-1.89,74.82-2.12,112.24-2.3c347.41-1.65,694.83,1.08,1042.16,8.21c-2.53,294.96,0.31,589.96,8.53,884.75"/>
			<path class="st5" d="M1934.95,846.83c-0.24-0.62-0.47-1.25-0.7-1.89c-0.19-0.52-0.37-1.05-0.54-1.58
				c-3.4-10.35-4.07-21.86-1.9-32.66"/>
			<path class="st5" d="M755.67-47.14c0.01-2.34,0.9-4.38,2.27-5.97c3.48-4.03,10.1-5.14,13.51-0.77c0.07,0.09,0.14,0.18,0.21,0.28"
				/>
		</g>
	</g>
	<path class="st2" d="M1513.5,428.5"/>
</g>
<g id="Layer_4">
	<g>
		
			<radialGradient id="SVGID_1_" cx="1261.8888" cy="488.582" r="628.6776" fx="1351.4563" fy="62.054" gradientTransform="matrix(0.648 0.7616 -1.4192 1.2075 1137.5482 -1062.4541)" gradientUnits="userSpaceOnUse">
			<stop  offset="0.075" style="stop-color:#F65234;stop-opacity:0.4"/>
			<stop  offset="0.1248" style="stop-color:#EF5E47;stop-opacity:0.4357"/>
			<stop  offset="0.2523" style="stop-color:#E07A72;stop-opacity:0.5273"/>
			<stop  offset="0.382" style="stop-color:#D39195;stop-opacity:0.6203"/>
			<stop  offset="0.5123" style="stop-color:#CAA3B1;stop-opacity:0.7138"/>
			<stop  offset="0.6433" style="stop-color:#C3B0C4;stop-opacity:0.8078"/>
			<stop  offset="0.7756" style="stop-color:#BEB7D0;stop-opacity:0.9027"/>
			<stop  offset="0.9112" style="stop-color:#BDBAD4"/>
		</radialGradient>
		<path class="st6" d="M728.5,0.5c-90.67,80.55-142.45,160.91-120,201.61c18.87,34.22,86.71,33.57,136.97,34.02
			c133.7,1.18,194.16-56.08,228.94-27.01c33.35,27.87,22.4,116.77-17,180.09c-75.53,121.39-216.44,85.78-280.93,192.1
			c-42.77,70.51-34.7,175.06,6,242.12c100.09,164.93,464.32,213.16,701.83,86.04c97.62-52.25,177.32-136.43,295.93-118.06
			c80.41,12.46,107.47,65.86,152.96,48.02c72.11-28.27,80.14-188.81,86.3-311.93c0.49-9.77-0.13-0.36,0-133
			c0.07-70.91,0.24-109.91,0.5-195.5c0.14-47.4,0.33-117.22,0.5-203.5C1523.17-2.83,1125.83-1.17,728.5,0.5z"/>
		<radialGradient id="SVGID_2_" cx="832.3366" cy="106.3865" r="972.9132" gradientUnits="userSpaceOnUse">
			<stop  offset="0" style="stop-color:#656691;stop-opacity:0.3"/>
			<stop  offset="1" style="stop-color:#656691"/>
		</radialGradient>
		<path class="st7" d="M1073.67,982.14c-30.95,0-61.8-1.89-91.87-5.68c-67.31-8.48-129.91-26.35-181.05-51.69
			c-54.41-26.96-94.34-60.97-118.69-101.09c-20.39-33.59-32.59-76.21-34.37-120c-1.86-45.85,8.22-89.4,28.37-122.63
			c31.33-51.65,80.05-69.68,131.64-88.77c54.3-20.1,110.44-40.88,149.3-103.33c40.76-65.51,49.07-152.72,17.1-179.44
			c-17.09-14.28-40.64-7.42-76.29,2.96c-35.88,10.45-85.04,24.74-152.34,24.17l-5.13-0.04c-50.74-0.41-113.89-0.91-132.27-34.23
			c-10.89-19.74-4.8-49.61,17.59-86.37c21.54-35.35,56.98-75.41,102.52-115.86L728.31,0l0.19,0l1192.52-5L1921-4.48
			c-4.98,137.46-5.32,271.69-1,398.96l0.22,6.28c1.11,32.26,2.5,72.42-0.22,126.76c-3.11,62.11-6.63,132.51-18.42,191.61
			c-13.71,68.65-36.01,108.15-68.19,120.76c-24.53,9.61-43.93-1.4-68.51-15.34c-21.1-11.97-47.36-26.87-84.71-32.66
			c-88.27-13.67-154.04,28.99-223.67,74.16c-23.16,15.02-47.11,30.56-71.94,43.85c-57.52,30.78-123.44,52.13-195.95,63.43
			C1151.03,979.2,1112.28,982.14,1073.67,982.14z M949.69,200.37c9.67,0,17.88,2.38,25.04,8.36c15.78,13.19,22.69,41.32,18.96,77.19
			c-3.64,35.04-16.71,72.78-35.85,103.55c-39.04,62.74-95.34,83.58-149.8,103.74c-51.42,19.03-99.98,37.01-131.13,88.36
			c-40.07,66.07-37.49,169.93,6,241.6c47.17,77.73,158.95,134.66,299.02,152.3c143.02,18.02,289.6-6.2,402.15-66.44
			c24.8-13.27,48.73-28.79,71.87-43.81c69.8-45.27,135.72-88.03,224.37-74.3c37.54,5.82,63.89,20.76,85.06,32.77
			c24.34,13.81,43.57,24.72,67.65,15.28c31.84-12.48,53.94-51.74,67.58-120.03c11.78-59.02,15.3-129.38,18.41-191.46
			c2.71-54.3,1.33-94.43,0.21-126.68l-0.22-6.28c0.5-65.51,0.83-131.02,1-196.52c0.17-67.33,0.16-134.66-0.02-202L728.69,1
			c-45.39,40.34-80.72,80.28-102.18,115.51c-22.2,36.44-28.27,65.96-17.57,85.36c18.09,32.81,80.92,33.31,131.4,33.72l5.13,0.04
			c67.15,0.6,116.22-13.7,152.05-24.13C918.76,205.32,935.74,200.37,949.69,200.37z"/>
	</g>
</g>
<g id="Layer_9">
</g>
<g id="Layer_5">
	<path class="st8" d="M1810.8,356.39c-7.12-2.46-23.3-22.5-23.3-22.5s25.11-5.75,32.23-3.28c7.12,2.47,10.89,10.24,8.43,17.35
		C1825.69,355.08,1817.92,358.86,1810.8,356.39L1810.8,356.39z"/>
	<ellipse class="st9" cx="1503.92" cy="925.86" rx="106.94" ry="17.92"/>
	<g class="st10">
		<path class="st11" d="M1435.99,247.04v-6.65h-104.8c-4.82,0-1.88,6.69-1.88,6.69h-56.94v149.15h250V247.04H1435.99z"/>
	</g>
	<path class="st12" d="M1704.41,407.29c0,0,31.51-55.82,79-71.9c19.95-6.62,37.21-19.53,49.19-36.8
		c5.63-8.24,10.48-16.97,14.51-26.1"/>
	<path class="st13" d="M1876.91,262.17c-5.4,5.25-30.58,10.68-30.58,10.68s6.17-25,11.58-30.26c5.41-5.25,14.04-5.12,19.29,0.29
		C1882.45,248.29,1882.32,256.92,1876.91,262.17L1876.91,262.17z"/>
	<path class="st13" d="M1834.61,343.55c-7.27-1.98-24.77-20.88-24.77-20.88s24.67-7.41,31.94-5.44c7.27,1.98,11.56,9.48,9.58,16.75
		C1849.38,341.24,1841.88,345.53,1834.61,343.55L1834.61,343.55L1834.61,343.55z"/>
	<path class="st13" d="M1763.21,384.6c-7.43-1.21-26.77-18.21-26.77-18.21s23.78-9.9,31.22-8.68c7.43,1.23,12.46,8.25,11.23,15.68
		c-1.23,7.43-8.25,12.46-15.68,11.23V384.6z"/>
	<path class="st13" d="M1810.19,280.22c0,7.54,13.63,29.39,13.63,29.39s13.66-21.84,13.66-29.38c0.2-7.54-5.74-13.81-13.28-14.01
		c-7.54-0.2-13.81,5.74-14.01,13.28C1810.18,279.74,1810.18,279.98,1810.19,280.22L1810.19,280.22z"/>
	<path class="st13" d="M1754.96,313.92c2.25,7.19,21.8,24,21.8,24s6.49-24.93,4.24-32.12c-1.9-7.29-9.35-11.66-16.64-9.76
		c-7.29,1.9-11.66,9.35-9.76,16.64c0.11,0.43,0.25,0.85,0.4,1.27L1754.96,313.92z"/>
	<path class="st13" d="M1705.76,354.04c1,7.47,17.44,27.31,17.44,27.31s10.61-23.47,9.61-30.94c-0.52-7.52-7.04-13.2-14.56-12.68
		c-7.52,0.52-13.2,7.04-12.68,14.56c0.04,0.59,0.12,1.17,0.24,1.75H1705.76z"/>
	<path class="st12" d="M1312.94,373.88c0,0-41.81-48.59-40.82-98.71c0.54-21.01-5.74-41.63-17.92-58.76
		c-5.84-8.09-12.41-15.62-19.63-22.51"/>
	<path class="st14" d="M1876.91,262.17c-5.4,5.25-30.58,10.68-30.58,10.68s6.17-25,11.58-30.26c5.41-5.25,14.04-5.12,19.29,0.29
		C1882.45,248.29,1882.32,256.92,1876.91,262.17L1876.91,262.17z"/>
	<path class="st14" d="M1834.69,343.53c-7.28-1.94-24.87-20.76-24.87-20.76s24.63-7.53,31.91-5.59c7.28,1.94,11.6,9.42,9.66,16.7
		C1849.45,341.15,1841.97,345.48,1834.69,343.53L1834.69,343.53L1834.69,343.53z"/>
	<path class="st14" d="M1763.21,384.6c-7.43-1.21-26.77-18.21-26.77-18.21s23.78-9.9,31.22-8.68c7.43,1.23,12.46,8.25,11.23,15.68
		c-1.23,7.43-8.25,12.46-15.68,11.23V384.6z"/>
	<path class="st14" d="M1810.19,280.22c0,7.54,13.63,29.39,13.63,29.39s13.66-21.84,13.66-29.38c0.2-7.54-5.74-13.81-13.28-14.01
		c-7.54-0.2-13.81,5.74-14.01,13.28C1810.18,279.74,1810.18,279.98,1810.19,280.22L1810.19,280.22z"/>
	<path class="st14" d="M1754.96,313.92c2.25,7.19,21.8,24,21.8,24s6.49-24.93,4.24-32.12c-1.9-7.29-9.35-11.66-16.64-9.76
		c-7.29,1.9-11.66,9.35-9.76,16.64c0.11,0.43,0.25,0.85,0.4,1.27L1754.96,313.92z"/>
	<path class="st14" d="M1705.76,354.04c1,7.47,17.44,27.31,17.44,27.31s10.61-23.47,9.61-30.94c-0.52-7.52-7.04-13.2-14.56-12.68
		c-7.52,0.52-13.2,7.04-12.68,14.56c0.04,0.59,0.12,1.17,0.24,1.75H1705.76z"/>
	<path class="st12" d="M1706.23,406.18c0,0,6.18-63.8,43-97.73c15.56-14.13,26.1-32.93,30.05-53.57c1.81-9.81,2.71-19.77,2.69-29.75
		"/>
	<path class="st15" d="M1810.8,356.39c-7.12-2.46-23.3-22.5-23.3-22.5s25.11-5.75,32.23-3.28c7.12,2.47,10.89,10.24,8.43,17.35
		C1825.69,355.08,1817.92,358.86,1810.8,356.39L1810.8,356.39z"/>
	<path class="st13" d="M1805.13,203.61c-2.82,7-23.64,22.16-23.64,22.16s-4.49-25.38-1.67-32.38c2.82-6.99,10.77-10.37,17.76-7.56
		s10.37,10.77,7.56,17.76V203.61z"/>
	<path class="st13" d="M1810.44,250.75c-6.16,4.34-31.88,5.75-31.88,5.75s10-23.73,16.18-28.06c6.16-4.34,14.67-2.86,19.01,3.3
		S1816.6,246.41,1810.44,250.75z"/>
	<path class="st13" d="M1782.86,316.54c-7.51,0.63-30.42-11.13-30.42-11.13s20.63-15.43,28.14-16.06
		c7.51-0.63,14.11,4.95,14.73,12.46C1795.94,309.31,1790.37,315.91,1782.86,316.54L1782.86,316.54z"/>
	<path class="st13" d="M1750.79,361.61c-7.29,1.9-31.87-5.83-31.87-5.83s17.73-18.69,25-20.58c7.29-1.89,14.74,2.49,16.63,9.78
		s-2.49,14.74-9.78,16.63L1750.79,361.61z"/>
	<path class="st13" d="M1751.44,247.15c3.05,6.89,24.37,21.34,24.37,21.34s3.63-25.5,0.58-32.39c-3.04-6.9-11.1-10.04-18-7
		s-10.04,11.1-7,18L1751.44,247.15z"/>
	<path class="st13" d="M1714.6,300.39c5,5.66,29.64,13.08,29.64,13.08s-4.17-25.42-9.14-31.09c-4.97-5.66-13.59-6.22-19.25-1.25
		c-5.66,4.97-6.22,13.59-1.25,19.25V300.39z"/>
	<path class="st13" d="M1685.88,356.95c4,6.42,27,17.9,27,17.9s0.25-25.76-3.75-32.18c-4.08-6.34-12.53-8.17-18.87-4.09
		c-6.15,3.96-8.08,12.06-4.39,18.37H1685.88z"/>
	<path class="st12" d="M1024.49,664.27c0,0-39-48.33-36.55-96.83c1.17-20.33-4.29-40.49-15.56-57.46
		c-5.41-8.01-11.55-15.51-18.33-22.4"/>
	<path class="st13" d="M955.42,457.01c2.8,6.75-1.29,31.38-1.29,31.38s-20.32-14.5-23.12-21.25c-2.79-6.75,0.41-14.48,7.15-17.28
		s14.48,0.41,17.28,7.16L955.42,457.01z"/>
	<path class="st13" d="M991.13,486.02c-1.32,7.18-18.15,25.61-18.15,25.61s-9.21-23.24-7.85-30.4c1.23-7.2,8.05-12.04,15.25-10.81
		c7.2,1.22,12.04,8.05,10.81,15.25C991.18,485.78,991.15,485.9,991.13,486.02z"/>
	<path class="st13" d="M1016.67,550.24c-4.77,5.54-28.61,12.95-28.61,12.95s3.8-24.67,8.57-30.21c4.99-5.33,13.36-5.6,18.69-0.61
		c5.02,4.71,5.59,12.48,1.31,17.87L1016.67,550.24z"/>
	<path class="st13" d="M1025.07,603.19c-3.76,6.26-26,17.6-26,17.6s-0.43-25,3.34-31.22c3.83-6.21,11.98-8.14,18.19-4.31
		C1026.71,589.03,1028.7,596.99,1025.07,603.19z"/>
	<path class="st13" d="M947.83,523.57c6.79,2.69,31.35-1.78,31.35-1.78s-14.8-20.1-21.58-22.8c-6.86-2.52-14.46,1.01-16.98,7.87
		C938.2,513.46,941.37,520.8,947.83,523.57z"/>
	<path class="st13" d="M958.45,585.39c7.28,0.54,29.38-11.07,29.38-11.07s-20.14-14.76-27.42-15.3c-7.28-0.55-13.63,4.9-14.18,12.18
		c-0.55,7.28,4.9,13.63,12.18,14.18H958.45z"/>
	<path class="st13" d="M977.01,644.02c7.08,1.77,30.83-6,30.83-6s-17.36-17.89-24.44-19.63c-7.09-1.76-14.26,2.55-16.03,9.64
		c-1.76,7.09,2.55,14.26,9.64,16.02V644.02z"/>
	<path class="st13" d="M1857.63,745.39c0,0,7.63,10-3.52,25s-20.35,27.78-16.63,37.18c0,0,16.83-28,30.52-28.37
		S1872.7,762.21,1857.63,745.39z"/>
	<path class="st16" d="M1857.63,745.39c0.67,0.96,1.19,2.02,1.56,3.13c13.36,15.7,20.48,30.35,7.64,30.72
		c-12,0.34-26.32,21.73-29.76,27.14c0.11,0.42,0.25,0.83,0.41,1.23c0,0,16.83-28,30.52-28.37S1872.7,762.21,1857.63,745.39z"/>
	<path class="st17" d="M1871.82,758.1c0,3.52-0.4,6.36-0.88,6.36s-0.88-2.84-0.88-6.36s0.49-1.85,1-1.85
		S1871.82,754.59,1871.82,758.1z"/>
	<path class="st17" d="M1876.68,762.3c-3.08,1.68-5.77,2.69-6,2.27s2.08-2.14,5.16-3.82s1.87-0.46,2.1,0
		S1879.77,760.62,1876.68,762.3z"/>
	<path class="st13" d="M1817.33,745.39c0,0-7.63,10,3.52,25c11.15,15,20.35,27.78,16.63,37.18c0,0-16.83-28-30.52-28.37
		S1802.26,762.21,1817.33,745.39z"/>
	<path class="st16" d="M1817.33,745.39c-0.67,0.96-1.2,2.02-1.56,3.13c-13.37,15.7-20.48,30.35-7.64,30.72
		c12,0.34,26.32,21.73,29.76,27.14c-0.12,0.41-0.25,0.82-0.41,1.23c0,0-16.83-28-30.52-28.37S1802.26,762.21,1817.33,745.39z"/>
	<path class="st17" d="M1803.13,758.1c0,3.52,0.4,6.36,0.88,6.36s0.88-2.84,0.88-6.36s-0.49-1.85-1-1.85
		S1803.13,754.59,1803.13,758.1z"/>
	<path class="st17" d="M1798.27,762.3c3.09,1.68,5.78,2.69,6,2.27s-2.08-2.14-5.16-3.82s-1.87-0.46-2.1,0
		S1795.19,760.62,1798.27,762.3z"/>
	<ellipse class="st9" cx="1837.48" cy="871.69" rx="79.78" ry="12.24"/>
	<path class="st18" d="M1878.54,794.16l-0.38,3.11l-0.54,4.4l-0.22,1.84l-0.53,4.4l-0.24,1.84l-0.53,4.4l-6.11,50
		c-0.54,4.47-7.84,8-16.65,8h-31.72c-8.81,0-16.1-3.48-16.65-8l-6.11-50l-0.54-4.4l-0.22-1.84l-0.54-4.4l-0.23-1.84l-0.53-4.4
		l-0.39-3.11c-0.3-2.53,3.65-4.66,8.63-4.66h64.88C1874.9,789.5,1878.85,791.63,1878.54,794.16z"/>
	<polygon class="st19" points="1878.16,797.27 1877.62,801.67 1797.33,801.67 1796.8,797.27 	"/>
	<polygon class="st19" points="1877.4,803.51 1876.86,807.91 1798.1,807.91 1797.55,803.51 	"/>
	<polygon class="st19" points="1876.63,809.75 1876.1,814.14 1798.86,814.14 1798.32,809.75 	"/>
	
		<linearGradient id="SVGID_3_" gradientUnits="userSpaceOnUse" x1="1718.42" y1="592.58" x2="1718.42" y2="801.93" gradientTransform="matrix(1 0 0 -1 -76.87 1056.39)">
		<stop  offset="0" style="stop-color:#808080;stop-opacity:0.25"/>
		<stop  offset="0.54" style="stop-color:#808080;stop-opacity:0.12"/>
		<stop  offset="1" style="stop-color:#808080;stop-opacity:0.1"/>
	</linearGradient>
	<path class="st20" d="M1674.68,277.96h-0.84c1.32-1.5,2-3,1.89-4.33l-7.6-7.6l2.9-6.5h-9.77l1.81-5.07h-5.79l-64.06,21.34
		c0,0-0.07,0.89,0,2.16h-41.25v185.85h179.16V277.96H1674.68z"/>
	<rect x="1553.3" y="278.61" class="st21" width="176.46" height="183.24"/>
	<path class="st16" d="M1674.19,278.61c-8.36,12.31-64.2,28.52-64.2,28.52l0.35-12.83h-10.33c0.58-2.54-0.58-5.15-2.86-6.42
		c-3-1.65-3.29-7-3.25-9.27H1674.19z"/>
	<path class="st19" d="M1657.04,255.44l-63.09,21c0,0-0.72,8.2,3.2,10.33c2.27,1.27,3.43,3.88,2.86,6.42h10.33l-0.35,12.83
		c0,0,66.3-19.25,65.23-31.72l-7.48-7.49l2.85-6.42h-9.63l1.79-5L1657.04,255.44z"/>
	<g class="st10">
		<rect x="1585.92" y="338.01" class="st11" width="111.22" height="3.12"/>
	</g>
	<g class="st10">
		<rect x="1585.92" y="354.46" class="st11" width="111.22" height="3.12"/>
	</g>
	<g class="st10">
		<rect x="1585.92" y="370.9" class="st11" width="111.22" height="3.12"/>
	</g>
	<g class="st10">
		<rect x="1585.92" y="387.34" class="st11" width="111.22" height="3.12"/>
	</g>
	<g class="st10">
		<rect x="1585.92" y="403.78" class="st11" width="111.22" height="3.12"/>
	</g>
	<g class="st10">
		<rect x="1585.92" y="420.23" class="st11" width="111.22" height="3.12"/>
	</g>
	
		<linearGradient id="SVGID_4_" gradientUnits="userSpaceOnUse" x1="1200.52" y1="558" x2="1200.52" y2="779.92" gradientTransform="matrix(1 0 0 -1 -76.87 1056.39)">
		<stop  offset="0" style="stop-color:#808080;stop-opacity:0.25"/>
		<stop  offset="0.54" style="stop-color:#808080;stop-opacity:0.12"/>
		<stop  offset="1" style="stop-color:#808080;stop-opacity:0.1"/>
	</linearGradient>
	<path class="st22" d="M1134.8,299.9h-0.42c3.16-8.1,6.08-16,5.95-17.51c-0.28-3-6.29,3.52-6.57,1.89s0-7.81-2.73-7.81
		c-2.73,0-4.38,3.21-6,3.21s-8.21-1.08-8.21-1.08l-8.39,21.3h-63.2v198.49h156.84V299.9H1134.8z"/>
	<rect x="1057.99" y="302" class="st21" width="153.29" height="196.06"/>
	<path class="st16" d="M1148.55,289c-3.23,8.39-6.87,17.23-7.7,19.34c-1.61,4-2.67,1.87-4.55,1.34c-1.88-0.53-4.27,0.53-5.34,0
		c-1.07-0.53-7.35,0-7.35,0c0.07-0.98,0.07-1.97,0-2.95c-0.14-1.06-7.36,0-7.36,0l6.88-17.73H1148.55z"/>
	<path class="st19" d="M1127.96,280.97l-14.71,37.7c0,0,7.22-1.07,7.35,0c0.08,0.98,0.08,1.96,0,2.94c0,0,6.29-0.54,7.36,0
		c1.07,0.54,3.47-0.54,5.34,0c1.87,0.54,2.94,2.67,4.55-1.34c1.61-4.01,13.37-32.62,13.1-35.56s-6.15,3.48-6.42,1.87
		c-0.27-1.61,0-7.71-2.67-7.71c-2.67,0-4.28,3.17-5.88,3.17C1134.38,282.04,1127.96,280.97,1127.96,280.97z"/>
	<g class="st10">
		<rect x="1079.03" y="354.04" class="st11" width="111.22" height="3.12"/>
	</g>
	<g class="st10">
		<rect x="1079.03" y="365.81" class="st11" width="111.22" height="3.12"/>
	</g>
	<g class="st10">
		<rect x="1079.03" y="377.57" class="st11" width="111.22" height="3.12"/>
	</g>
	<g class="st10">
		<rect x="1079.03" y="389.34" class="st11" width="111.22" height="3.12"/>
	</g>
	<g class="st10">
		<rect x="1079.03" y="401.1" class="st11" width="111.22" height="3.12"/>
	</g>
	<g class="st10">
		<rect x="1079.03" y="412.86" class="st11" width="111.22" height="3.12"/>
	</g>
	
		<linearGradient id="SVGID_5_" gradientUnits="userSpaceOnUse" x1="1767.535" y1="279.11" x2="1767.535" y2="552.9" gradientTransform="matrix(1 0 0 -1 -76.87 1056.39)">
		<stop  offset="0" style="stop-color:#808080;stop-opacity:0.25"/>
		<stop  offset="0.54" style="stop-color:#808080;stop-opacity:0.12"/>
		<stop  offset="1" style="stop-color:#808080;stop-opacity:0.1"/>
	</linearGradient>
	<path class="st23" d="M1704.25,532.39h-0.42c3.88-10,7.46-19.77,7.29-21.6c-0.33-3.67-7.71,4.34-8,2.34c-0.29-2,0-9.64-3.35-9.64
		s-5.36,4-7.37,4s-10.06-1.34-10.06-1.34L1672,532.39h-77.45v244.89h192.23V532.39H1704.25z"/>
	<rect x="1601.09" y="533.09" class="st21" width="188.88" height="241.6"/>
	<path class="st16" d="M1703.88,534.09c-3.94,10.26-8.36,21-9.39,23.58c-2,4.94-3.29,2.3-5.6,1.65c-2.31-0.65-5.27,0.65-6.59,0
		c-1.32-0.65-9.06,0-9.06,0c0.09-1.21,0.09-2.42,0-3.63c-0.17-1.31-9.06,0-9.06,0l8.43-21.6H1703.88z"/>
	<path class="st19" d="M1687.3,507.17l-18.12,46.45c0,0,8.89-1.32,9.06,0c0.09,1.21,0.09,2.41,0,3.62c0,0,7.74-0.65,9.06,0
		c1.32,0.65,4.28-0.65,6.59,0c2.31,0.65,3.62,3.3,5.6-1.64s16.47-40.2,16.14-43.82s-7.58,4.28-7.91,2.31
		c-0.33-1.97,0-9.51-3.29-9.51c-3.29,0-5.27,3.91-7.25,3.91S1687.3,507.17,1687.3,507.17z"/>
	<g class="st10">
		<rect x="1639.92" y="600.6" class="st11" width="111.22" height="7.93"/>
	</g>
	<g class="st10">
		<rect x="1639.92" y="652.11" class="st11" width="111.22" height="7.93"/>
	</g>
	<g class="st10">
		<rect x="1639.92" y="703.63" class="st11" width="111.22" height="7.93"/>
	</g>
	
		<linearGradient id="SVGID_6_" gradientUnits="userSpaceOnUse" x1="1082.575" y1="284.26" x2="1082.575" y2="546.81" gradientTransform="matrix(1 0 0 -1 0 1082)">
		<stop  offset="0" style="stop-color:#808080;stop-opacity:0.25"/>
		<stop  offset="0.54" style="stop-color:#808080;stop-opacity:0.12"/>
		<stop  offset="1" style="stop-color:#808080;stop-opacity:0.1"/>
	</linearGradient>
	<polygon class="st24" points="1108.97,564.76 1108.97,535.19 1067.46,535.19 1067.46,564.76 980.79,564.76 980.79,797.74 
		1184.36,797.74 1184.36,564.76 	"/>
	<rect x="982.94" y="565.94" class="st21" width="199.27" height="230.28"/>
	<rect x="1067.78" y="565.94" class="st16" width="40.64" height="31.37"/>
	<rect x="1067.78" y="536.71" class="st19" width="40.64" height="59.53"/>
	<g class="st10">
		<rect x="1026.96" y="621.64" class="st11" width="111.22" height="7.93"/>
	</g>
	<g class="st10">
		<rect x="1026.96" y="637.41" class="st11" width="111.22" height="7.93"/>
	</g>
	<g class="st10">
		<rect x="1026.96" y="653.19" class="st11" width="111.22" height="7.93"/>
	</g>
	<g class="st10">
		<rect x="1026.96" y="668.96" class="st11" width="111.22" height="7.93"/>
	</g>
	<g class="st10">
		<rect x="1108.42" y="686.52" class="st11" width="29.77" height="24.06"/>
	</g>
	<g class="st10">
		<rect x="1026.96" y="716.28" class="st11" width="29.77" height="24.06"/>
	</g>
	
		<linearGradient id="SVGID_7_" gradientUnits="userSpaceOnUse" x1="1441.6849" y1="258.64" x2="1441.6849" y2="519.3343" gradientTransform="matrix(1 0 0 -1 -76.87 1056.39)">
		<stop  offset="0" style="stop-color:#808080;stop-opacity:0.25"/>
		<stop  offset="0.54" style="stop-color:#808080;stop-opacity:0.12"/>
		<stop  offset="1" style="stop-color:#808080;stop-opacity:0.1"/>
	</linearGradient>
	<path class="st25" d="M1394.86,564.39h-0.28c3.24-12.67,5.68-22.76,5.68-22.76l-13.82,6.5c0,0-9.81-13-13.44-10.83
		c-3.63,2.17-11.6,7.58-11.6,7.58l-10.58-5.42l-4.05,24.93h-83.55v179.89l5.37,3.21c4.43-1.59,11.72-4.29,11.72-4.29l-3.35,9.3
		l2.26,1.34l3.81-3.45l1.41,6.59l4.53,2.71l7.15-4.55l-2,7.66l6.71,4l19.51-7.33l-5.88,15.48l3.87,2.32l8.83-1.55
		c0,0-0.4,3.09-0.65,6.44l8.86,5.3c3.63-1.41,7.05-2.8,7.05-2.8s-0.35,3.38-0.51,6.7l5.94,3.56c4.69-2.74,10.66-6.47,10.66-6.47
		l-5,9.3h112.9V564.39H1394.86z"/>
	<path class="st21" d="M1464.19,565.94v230.28h-110.73l4.94-9.17c0,0-5.85,3.67-10.45,6.38l-5.82-3.52
		c0.16-3.27,0.51-6.61,0.51-6.61s-3.36,1.37-6.92,2.76l-8.69-5.23c0.25-3.3,0.63-6.35,0.63-6.35l-8.65,1.53l-3.79-2.29l5.76-15.28
		l-19.13,7.24l-6.59-4l1.92-7.56l-7,4.49l-4.44-2.67l-1.38-6.5l-3.74,3.42l-2.22-1.33l3.29-9.17c0,0-7.15,2.66-11.5,4.23l-5.26-3.16
		V565.94H1464.19z"/>
	<g class="st10">
		<rect x="1308.94" y="637.41" class="st11" width="111.22" height="7.93"/>
	</g>
	<g class="st10">
		<rect x="1308.94" y="661.12" class="st11" width="111.22" height="7.93"/>
	</g>
	<g class="st10">
		<rect x="1308.94" y="684.82" class="st11" width="111.22" height="7.93"/>
	</g>
	<g class="st10">
		<rect x="1308.94" y="708.53" class="st11" width="22.28" height="7.93"/>
	</g>
	<path class="st16" d="M1394.01,565.94c-5.42,21.38-13.32,51-15.38,50.48c-3.2-0.87-8.2-7-8.2-7s-11.76,11.05-17.46,5.35
		c-5.7-5.7-13.55-1.79-13.55-1.79l7.6-47.05L1394.01,565.94z"/>
	<path class="st19" d="M1350.83,541.39l-11.41,70.58c0,0,7.84-3.92,13.54,1.79s17.47-5.37,17.47-5.37s5,6.12,8.2,7
		c3.2,0.88,20.68-71.86,20.68-71.86l-13.55,6.42c0,0-9.62-12.84-13.19-10.7c-3.57,2.14-11.37,7.49-11.37,7.49L1350.83,541.39z"/>
	<path class="st13" d="M1298.37,240.6c-3.44,6.71-25.56,19.9-25.56,19.9s-2.17-25.66,1.29-32.37c3.44-6.7,11.66-9.34,18.36-5.9
		C1299.17,225.67,1301.81,233.9,1298.37,240.6z"/>
	
		<linearGradient id="SVGID_8_" gradientUnits="userSpaceOnUse" x1="1481.78" y1="672" x2="1481.78" y2="829.71" gradientTransform="matrix(1 0 0 -1 -76.87 1056.39)">
		<stop  offset="0" style="stop-color:#808080;stop-opacity:0.25"/>
		<stop  offset="0.54" style="stop-color:#808080;stop-opacity:0.12"/>
		<stop  offset="1" style="stop-color:#808080;stop-opacity:0.1"/>
	</linearGradient>
	<path class="st26" d="M1444.03,233.45v-6.77h-106.12c-4.87,0-1.89,6.77-1.89,6.77h-57.66v150.94h253.1v-151L1444.03,233.45z"/>
	<rect x="1279.96" y="234.17" class="st21" width="249.98" height="149.19"/>
	<path class="st16" d="M1443.59,258.5h-99.19c0,0-1.07-11.5,2.41-13.63s-9.9-9.63-9.9-9.63c-0.15-0.35-0.28-0.71-0.39-1.07h107.07
		v3.48C1443.59,237.65,1457.23,249.68,1443.59,258.5z"/>
	<path class="st19" d="M1338.78,219.49h104.81v9.09c0,0,13.64,12,0,20.85h-99.19c0,0-1.07-11.5,2.41-13.63s-9.9-9.63-9.9-9.63
		S1333.97,219.49,1338.78,219.49z"/>
	<g class="st10">
		<rect x="1310.67" y="280.96" class="st11" width="188.58" height="3.12"/>
	</g>
	<g class="st10">
		<rect x="1310.67" y="292.72" class="st11" width="112.65" height="3.12"/>
	</g>
	<g class="st10">
		<rect x="1310.67" y="304.49" class="st11" width="188.58" height="3.12"/>
	</g>
	<g class="st10">
		<rect x="1310.67" y="316.25" class="st11" width="188.58" height="3.12"/>
	</g>
	<g class="st10">
		<rect x="1310.67" y="328.01" class="st11" width="188.58" height="3.12"/>
	</g>
	
		<linearGradient id="SVGID_9_" gradientUnits="userSpaceOnUse" x1="1496.5363" y1="119.8307" x2="1496.5363" y2="787.7849" gradientTransform="matrix(1 0 0 -1 -76.87 1056.39)">
		<stop  offset="0" style="stop-color:#808080;stop-opacity:0.25"/>
		<stop  offset="0.54" style="stop-color:#808080;stop-opacity:0.12"/>
		<stop  offset="1" style="stop-color:#808080;stop-opacity:0.1"/>
	</linearGradient>
	<path class="st27" d="M1576.82,922.66c-1.79-7.62-2.89-14.3-2.89-14.3s0.41-8.29-3.31-14.51v-2.07l0,0v-15.31
		c1.05-2.77,2.35-5.45,3.86-8c2.76-4.82,0-22.46,0-22.46s-10.22-24.87-7.73-40.64s-21-70.05-21-70.05
		c0.14-5.24,0.89-10.44,2.21-15.51c0.24-1.07,0.34-2.16,0.3-3.25c0-0.13,0-0.26,0-0.4v0.13c-0.35-10.4-8.57-29.9-8.57-29.9
		l1.1-37.17c0,0,5.25-21.92-3.31-51.33c-3-10.27-4.91-18.48-6.12-24.82c-0.14-0.72-0.27-1.41-0.39-2.07
		c17.63-2.69,31.09-4.93,31.09-4.93s-10.23-42.8-17.13-50.28c-6.9-7.48-12.43-31-12.43-31s-3.6-30.21,2.21-39
		c5.81-8.79,6.62-24.07,6.62-24.07s13.26-9.62,14.92-13.9c1.66-4.28,4.42-13.9,4.42-19c0-5.1-1.66-9.63-1.1-12.3
		c0.56-2.67-3.87-12.83-1.66-17.65c0.57-1.48,0.87-3.05,0.88-4.64c0.01-0.05,0.01-0.09,0-0.14c0,0,0,0,0-0.05
		c0.01-4.21-0.38-8.41-1.17-12.55c0,0-6-5.29-13.11-7l-0.29-1.15l-0.75-3c-0.42-0.28-0.86-0.54-1.31-0.78v-1.09l-0.12-4.34
		l2.08-9.77c4.07-17-18.58-19.51-18.58-19.51c-1.36-2.62-3.64-4.64-6.41-5.66c-4.56-1.61-0.76,25.54,1.37,27.27
		c1.61,1.31,6.56,9.82,8.94,14l0,0l0.39,0.69c-0.36,0.34-0.7,0.7-1,1.09l0.86,5.89l0.13,0.9c-1.5,1.87-2.71,3.95-3.61,6.17
		c0,0,4.15,4.54,3.32,9.62c-0.83,5.08,1.27,11.41,1.37,11.76c-0.25-0.28-3.16-3.44-6.07-2.67c-2.91,0.77-11,3.21-11,3.21
		s-6.08,1.07-5.52,2.41c0.56,1.34-4.15,7.22-4.15,7.22l-16.33-15.48c-0.16-0.46-0.32-0.92-0.47-1.4c-0.68-2.21-1.16-4.48-1.42-6.78
		c1.78-0.42,3.52-0.98,5.22-1.66c1.72-0.59,3.27-1.58,4.52-2.89c1.64-2,2-4.61,2.63-7c1.29-4.76,4.07-9,6.06-13.51
		c3.36-7.62,4.49-16.03,3.26-24.27c-0.26-2.53-1.12-4.97-2.51-7.1c-2.66-3.67-7.5-5.16-11-8.09s-5.78-7.39-9.88-9.59
		c-3.7-2-8.22-1.75-12.39-1.07c-8.17,1.35-16.02,4.2-23.15,8.42c-2.38,1.41-5,3-7.74,2.54c-2.34-0.42-4.06-2.3-5.57-4.09
		c0.02-0.08,0.04-0.15,0.07-0.23l-0.18-0.21c-1.73,3.84-2.6,8.01-2.54,12.22c0,0.65,0,1.3,0.08,2c0,0.23,0,0.46,0,0.69
		c0.01,0.19,0.01,0.37,0,0.56l0,0c0,0.29-0.04,0.58-0.12,0.86c-0.35,0.84-0.87,1.59-1.53,2.21c-0.5,0.56-0.94,1.17-1.33,1.81
		c0.07-0.22,0.14-0.44,0.22-0.66c-1.04,1.52-1.63,3.3-1.69,5.14c-0.09,1.34,0.35,2.67,1.23,3.69c0.81,0.8,1.7,1.52,2.66,2.14
		c-2.31,12.85,3.64,25.77,14.9,32.38c0.19,0.46,0.37,0.93,0.56,1.4c2.08,5.5,3.65,11.9,3,17.81c-0.06,0.44-0.12,0.87-0.2,1.3
		c-0.21,0.22-0.41,0.45-0.59,0.68l0,0c0,0-27,0.26-33.31-5.49c-6.31-5.75-16,14-16,14s-9.67,1.88-11.6,0
		c-1.93-1.88-13.26-0.26-13.26-0.26s-6.91-6.69-16.85-6.15c-3.78-2.87-7.94-5.19-12.37-6.88l0,0l-0.31-0.11l0,0
		c-1.94-0.7-4.02-0.97-6.08-0.77c0,0-13.26-11-17.12-16.84c-3.86-5.84-22.29-27.7-22.37-27.8l-0.07-1l-0.21-3.18
		c-0.55,0.09-1.1,0.13-1.65,0.14l-0.37-1.1c-1.06-3.1-2.37-6.11-3.92-9c0,0,0-4,1.17-5c1.17-1-0.48-15.71-0.48-15.71
		s-11.95-27.94-22.65-7.08c0,0-20.23,13.49-3.25,29.2c0,0,6.77,3.29,7.73,5.89c0.63,1.69,2.93,6.4,4.48,9.54
		c0.26,0.52,0.49,1,0.69,1.4l-0.19,0.16l0.25,2.62l0.1,1c-3.2,1.82-5.37,3.61-4.84,5c0.95,2.32,1.59,4.74,1.93,7.22
		c0,0,23.48,29.41,26.52,42c0,0,63,37.43,83.7,40.11l-3.59,18.71c0,0-1.11,11.23-0.83,15.24c0.28,4.01-2.49,22.2-2.49,22.2
		s-3.59,26.73-6.63,30.47c-3.04,3.74-2.48,19.79-2.48,19.79c-0.73,7.68-2.12,15.29-4.15,22.73c-3,10.16-0.82,22.72-0.82,22.72
		s-10.5,24.07,14.64,7.76c0,0,12.34-0.77,26.55-1.25c0,0.46,0,0.93,0,1.41c0,1.83-0.06,3.81-0.08,5.9
		c-0.19,13.78-0.27,32.77,0.35,47.14c1.1,25.4,8.84,75.67,8.84,75.67v25.25c-0.5,2.37-0.74,4.79-0.73,7.22
		c-0.17,8.9,2.19,17.67,6.81,25.28l1.71,16.67c0,0,4.54,11.1,4.63,17.73c-0.02,0.54-0.09,1.08-0.2,1.61
		c-0.17,0.85-0.24,1.71-0.22,2.58c-0.26,7.65,4.35,25.94,4.35,25.94s0.28,18.45,3,19.52c2.36,0.91-3.15,10.63-4.8,13.42
		c0-0.18-0.07-0.35-0.1-0.53c-0.21,0.36-0.34,0.56-0.34,0.56c-0.57,1.49-0.86,3.07-0.86,4.66c-0.32,2.57,0.87,5.1,3.06,6.49
		c5.25,3.21,8.07,5.88,3.62,7c-1.64,0.25-3.26,0.58-4.87,1c-0.08-0.21-0.16-0.42-0.23-0.62c-1.28,0.53-2.03,1.86-1.82,3.23
		c-0.12,1.35,0.33,3.32,1.65,6.26c4.42,9.89,7.48,13.64,7.48,13.64l2.12-0.24c-0.32,0.8-0.74,1.57-1.23,2.28
		c-0.81,1.16-1.88,2.11-3.13,2.77c-1.15,0.69-2.44,1.13-3.77,1.29c-3.03,0.1-5.88,1.49-7.83,3.81c-2.75,3.56-4.48,8.42,1,12.68
		l19.76,6.82c0,0,34,4.41,32.17-3.21c-1.83-7.62-2.89-14.3-2.89-14.3s0.38-7.44-2.76-13.52c-0.35-0.69-0.75-1.36-1.2-2l1.2-0.14
		c0,0,2.48-16.84,5.8-20c0.76-0.74,0.93-1.31,0.75-1.74c0.35-0.92-0.52-1.46-1.63-1.76l-0.24,0.66c-1.08-0.24-2.19-0.36-3.3-0.37
		c0,0-1.11-8.82,2.48-12c0.59-0.74,0.85-1.69,0.7-2.62c0.03-1.21-0.09-2.41-0.37-3.59c0,0.06-0.08,0.14-0.13,0.2
		c-1.81-8-7.93-20.73-7.93-20.73s-0.28-8,1.93-11.22c2.21-3.22-0.27-43.59-0.27-43.59s0.83-19.51-1.66-28.6s3-19.79,3-19.79
		s0-0.21-0.06-0.58l0.07-0.14c0,0-0.12-1.2-0.32-3.07c-0.03,0.06-0.05,0.12-0.07,0.18c-0.55-5.16-1.61-14.52-2.38-18.85
		c-1.11-6.15,0.27-35.56,0.27-35.56l5-12.56l8.84,21.65l9.4,28.88c0,0,4.65,6.1,4.76,12.28c0,0.3,0,0.6-0.06,0.9
		c-0.08,0.64-0.11,1.29-0.11,1.93c-0.17,3.65,0.84,7.25,2.86,10.29c0,0,2.49,13.63,6.36,17.11s3.86,10.16,3.86,10.16
		s4.7,19.78,6.91,23.26c1.86,2.93,2,11,1.94,13.45l0,0c0,0.46,0,0.72,0,0.72s0.65,7.07,0.63,13c0,0.73,0,1.44-0.07,2.11v-0.15
		c-0.01,1.62-0.2,3.23-0.57,4.81c-0.03,0.09-0.06,0.18-0.08,0.27c0-0.33,0-0.67,0.08-1c-0.96,4.04-1.43,8.18-1.38,12.33
		c-0.13,7.11,1,15.54,5.26,20.48c7.46,8.56,12.16,7.49,12.16,7.49s-3.6,10.69-8,12.83c-0.17,0.08-0.32,0.18-0.47,0.3
		c0-0.21-0.08-0.41-0.11-0.62c-0.92,0.8-1.29,2.24-1.29,4c-0.32,4.7,2.64,12.34,5.47,15.85c1.04,1.02,2.33,1.77,3.73,2.18
		c-0.23,0.15-0.46,0.3-0.7,0.43c-0.49,0.27-1,0.51-1.52,0.71c-0.71,0.32-1.47,0.52-2.25,0.59c-3.03,0.07-5.89,1.44-7.85,3.76
		c-2.75,3.55-4.48,8.41,1,12.67l19.76,6.82C1544.69,925.88,1578.63,930.28,1576.82,922.66z"/>
	<path class="st28" d="M1447.06,935.29l-19.12-6.82c-5.28-4.26-3.6-9.12-0.93-12.68c1.85-2.31,4.61-3.7,7.57-3.81
		c1.3-0.16,2.54-0.6,3.65-1.29c1.21-0.67,2.23-1.62,3-2.77c1.4-2.21,2.15-4.77,2.18-7.39c0,0,21-6.15,26.74,0
		c1.03,1.11,1.88,2.37,2.54,3.73c3,6.08,2.68,13.52,2.68,13.52s1.07,6.67,2.8,14.3S1447.06,935.29,1447.06,935.29z"/>
	<path class="st28" d="M1540.63,925.87l-19.12-6.82c-5.27-4.26-3.59-9.12-0.93-12.67c1.85-2.31,4.61-3.7,7.57-3.81
		c0.76-0.07,1.5-0.27,2.19-0.59c0.5-0.21,1-0.44,1.47-0.71c5.35-2.94,5.21-10.16,5.21-10.16s21-6.15,26.74,0
		c0.77,0.83,1.44,1.75,2,2.73c3.6,6.22,3.2,14.52,3.2,14.52s1.07,6.68,2.81,14.3S1540.63,925.87,1540.63,925.87z"/>
	<path class="st16" d="M1470.18,900.53c1.03,1.11,1.88,2.37,2.54,3.73l0,0l-31.46,3.65c1.4-2.21,2.15-4.77,2.18-7.39
		C1443.44,900.52,1464.44,894.39,1470.18,900.53z"/>
	<path class="st16" d="M1565.77,893.84v5.89c-4.89,8.06-28.56,6.3-35.43,2.25c0.5-0.21,1-0.44,1.47-0.71
		c5.35-2.94,5.21-10.16,5.21-10.16s21-6.15,26.74,0C1564.53,891.94,1565.21,892.86,1565.77,893.84z"/>
	<path class="st29" d="M1569.51,868.45c-1.47,2.56-2.72,5.23-3.74,8v21.14c-5.35,8.82-33.16,5.88-36.9,1.07
		c-3.74-4.81-7.75-17.38-3.48-19.52s7.74-12.83,7.74-12.83s-4.55,1.07-11.77-7.49c-7.22-8.56-5.08-27.54-3.73-32.08
		c1.35-4.54,0-19.79,0-19.79s0.27-10.69-1.87-14.17s-6.63-23.26-6.63-23.26s0-6.68-3.75-10.16s-6.15-17.11-6.15-17.11
		c-2.19-3.41-3.13-7.47-2.67-11.49c0.8-6.69-4.55-13.91-4.55-13.91l-9.09-28.87l-8.55-21.66l-4.81,12.57c0,0-1.34,29.41-0.27,35.56
		c1.07,6.15,2.67,22.46,2.67,22.46s-5.34,10.69-2.94,19.78s1.61,28.61,1.61,28.61s2.4,40.37,0.26,43.58s-1.87,11.23-1.87,11.23
		s11,23.52,7.49,26.73s-2.41,12-2.41,12s7.49,0,4.28,3.21s-5.62,20-5.62,20l-32.32,3.75c0,0-3-3.75-7.24-13.64s0.8-8.82,5.1-9.89
		c4.3-1.07,1.58-3.74-3.5-7c-5.08-3.26-2.14-10.43-2.14-10.43s7.75-13.1,5.08-14.17c-2.67-1.07-2.94-19.52-2.94-19.52
		s-5.35-21.92-4-27.8s-4.33-19.96-4.33-19.96l-1.87-16.85c-9.63-16.57-5.88-31.81-5.88-31.81v-25.9c0,0-7.49-50.26-8.56-75.66
		c-0.68-16.27-0.49-38.47-0.27-52.32c0.13-7.77,0.27-12.92,0.27-12.92l115.5-12c0,0-0.12,5.33,2.1,17.16
		c1.17,6.34,3,14.55,5.92,24.82c8.29,29.41,3.21,51.33,3.21,51.33l-1.07,37.15c0,0,10.16,24.87,8,33.42
		c-1.28,5.08-2,10.28-2.14,15.51c0,0,22.75,54.26,20.34,70.07c-2.41,15.81,7.49,40.64,7.49,40.64S1572.18,863.63,1569.51,868.45z"/>
	<path class="st30" d="M1503.47,729.15l35.16-4.68C1538.63,724.47,1518.71,744.79,1503.47,729.15z"/>
	<path class="st16" d="M1533.55,690.12c0,0,1.2,12.43-6.42,17.11C1527.13,707.23,1540.77,705.09,1533.55,690.12z"/>
	<path class="st16" d="M1531.39,650.55c0,0-29.39,24.19-40.08,22.19C1480.62,670.74,1531.39,650.55,1531.39,650.55z"/>
	<path class="st16" d="M1459.89,740.52c0,0-22.32,5.07-23,14C1436.21,763.45,1459.89,740.52,1459.89,740.52z"/>
	<path class="st30" d="M1464.8,852c0,0-31.55,5.89-22.59,9.9s23.66,7.21,23.66,7.21S1476.03,869.65,1464.8,852z"/>
	<g class="st31">
		<path d="M1435.84,868.26c-1.61-1-2.67-2.69-2.89-4.57l-0.32,0.56c0,0-2.94,7.22,2.14,10.43l1.65,1.08
			c0.93-0.17,1.94-0.3,2.92-0.55C1443.64,874.14,1440.92,871.47,1435.84,868.26z"/>
		<path d="M1476.48,866.12c0.86-0.8,0.83-2.85,0.3-5.49c-1.42,2.07-1.76,5.29-1.79,7.74
			C1475.32,867.52,1475.83,866.76,1476.48,866.12z"/>
		<path d="M1471.62,733.11c-1.17,3.16-1.89,6.47-2.13,9.83c0.6-2.32,1.42-4.58,2.44-6.75
			C1471.93,736.19,1471.81,734.98,1471.62,733.11z"/>
		<path d="M1543.85,719.07c0.22-0.96,0.32-1.94,0.29-2.92c-0.39,2-0.67,3.85-0.87,5.47
			C1543.44,720.79,1543.63,719.94,1543.85,719.07z"/>
		<path d="M1470.86,828.16c0.44-0.66,0.68-2.86,0.8-5.94c-1,1.95-1.41,5.1-1.54,7.5C1470.3,829.17,1470.55,828.65,1470.86,828.16z"
			/>
		<path d="M1477.49,878.58c-2.2,6-3.69,16.42-3.69,16.42l-32.33,3.74c0,0-3-3.74-7.24-13.63c-0.37-0.87-0.67-1.65-0.91-2.36
			c-1.94,0.89-2.7,2.9-0.16,8.77c4.28,9.89,7.24,13.64,7.24,13.64l32.33-3.77c0,0,2.41-16.84,5.62-20
			C1479.93,879.79,1478.92,878.98,1477.49,878.58z"/>
		<path d="M1434.77,830.56c0,0,0.27,18.45,2.94,19.52l0,0c1.35-3.05,2.25-6,1-6.43c-2.67-1.06-2.94-19.51-2.94-19.51
			s-5.35-21.93-4-27.81s-4.28-20.05-4.28-20.05l-1.87-16.84c-9.63-16.58-5.88-31.82-5.88-31.82V701.7c0,0-7.49-50.27-8.56-75.67
			c-0.68-16.26-0.49-38.46-0.27-52.31c0-2.51,0.09-4.73,0.13-6.6l-0.93,0.09c0,0-0.14,5.15-0.27,12.92
			c-0.22,13.85-0.41,36,0.27,52.32c1.07,25.4,8.56,75.66,8.56,75.66v25.94c0,0-3.75,15.24,5.88,31.81l1.87,16.85
			c0,0,5.61,14.17,4.28,20S1434.77,830.56,1434.77,830.56z"/>
		<path d="M1529.95,891.52c-2.63-3.8-4.38-8.14-5.12-12.7c-3.3,3,0.49,14.55,4,19.12c3.74,4.81,31.55,7.75,36.9-1.07v-5.09
			C1558.55,898.95,1533.49,896.07,1529.95,891.52z"/>
		<path d="M1570.59,861.31c-1.47,2.56-2.73,5.23-3.75,8v3.75c0.61-1.37,1.48-3.2,2.68-5.35c0.77-1.39,1.09-3.84,1.17-6.63
			C1570.65,861.17,1570.62,861.25,1570.59,861.31z"/>
		<path d="M1531.59,865.52c1.02-2.05,1.9-4.18,2.64-6.35c0,0-4.55,1.07-11.77-7.48c-5.25-6.23-5.55-18-4.8-25.67
			c-1.35,4.55-3.48,23.53,3.73,32.08C1526.13,863.7,1529.68,865.17,1531.59,865.52z"/>
		<path d="M1517.65,806.23c0.47,5.27,0.65,10.56,0.53,15.85c0.14-0.84,0.32-1.66,0.55-2.48c1.35-4.54,0-19.78,0-19.78
			s0.27-10.7-1.87-14.17s-6.73-23.26-6.73-23.26s0-6.69-3.74-10.16s-6.15-17.11-6.15-17.11c-2.19-3.41-3.13-7.47-2.67-11.5
			c0.8-6.68-4.55-13.9-4.55-13.9l-9.09-28.88l-8.55-21.65l-4.82,12.56c0,0-0.07,1.58-0.16,4.06l3.91-10.21l8.55,21.66l9.09,28.87
			c0,0,5.35,7.22,4.55,13.91c-0.46,4.02,0.48,8.08,2.67,11.49c0,0,2.41,13.64,6.15,17.11c3.74,3.47,3.81,10.16,3.81,10.16
			s4.55,19.79,6.69,23.26S1517.65,806.23,1517.65,806.23z"/>
	</g>
	<path class="st32" d="M1540.13,314.39l-2,9.76l0.12,4.34l0.08,3.21l-11.2,1.1l-1.25-2.31l0,0c-2.31-4.18-7.1-12.69-8.66-14
		c-2.06-1.74-5.74-28.88-1.32-27.27c2.69,1.04,4.91,3.04,6.21,5.62C1522.11,294.84,1544.05,297.39,1540.13,314.39z"/>
	<path class="st16" d="M1538.29,331.65l-11.16,1.15l-1.25-2.31l0,0c1.6-1.65,6.17-5.4,12.32-2L1538.29,331.65z"/>
	<path class="st33" d="M1541.13,336.93l-14.73,3.46l-0.31-2.2l-0.83-5.89c0,0,5.81-7.76,14.24-1.95l0.73,3L1541.13,336.93z"/>
	<path class="st32" d="M1302.81,315.39l-15.68,8.44c0,0-0.6-1.24-1.42-3c-1.5-3.13-3.72-7.85-4.33-9.54
		c-0.93-2.6-7.49-5.88-7.49-5.88c-16.43-15.71,3.15-29.21,3.15-29.21c10.36-20.85,21.92,7.08,21.92,7.08s1.6,14.72,0.47,15.71
		c-1.13,0.99-1.13,5-1.13,5c1.5,2.89,2.76,5.9,3.78,9C1302.55,314.49,1302.81,315.39,1302.81,315.39z"/>
	<path class="st16" d="M1302.81,315.39l-15.68,8.44c0,0-0.6-1.24-1.42-3c2.21-1.85,10.07-8.22,12.65-7.93
		c1.23,0.15,2.48,0.18,3.72,0.09C1302.55,314.49,1302.81,315.39,1302.81,315.39z"/>
	<path class="st33" d="M1304.42,320.15l-17.65,8.7l-0.35-3.8l-0.29-2.66c0,0,10.22-8.76,13.24-8.42c1.53,0.23,3.08,0.23,4.61,0
		l0.2,3.18L1304.42,320.15z"/>
	<path class="st32" d="M1497.32,379.18c0,0-76.94,8.68-62.56,4c10-3.26,14-9.63,14.82-16.69c0.68-5.91-0.84-12.3-2.86-17.8
		c-1.82-4.85-4.12-9.51-6.88-13.9c0,0,58.82-32.36,47-3c-1.81,4.45-2.94,9.15-3.33,13.94c-0.36,4.76,0.15,9.54,1.51,14.11
		C1487.25,367.3,1491.51,374,1497.32,379.18z"/>
	<path class="st16" d="M1486.89,331.85c-1.81,4.45-2.94,9.15-3.33,13.94c-5.54,4.65-11.62,4.35-19.42,4.35
		c-6,0-12.63,1.45-17.42-1.44c-1.82-4.85-4.12-9.51-6.88-13.9C1439.84,334.8,1498.66,302.44,1486.89,331.85z"/>
	<circle class="st32" cx="1463.1" cy="320.36" r="31.82"/>
	<path class="st16" d="M1497.32,379.18c0,0-76.94,8.68-62.56,4c10-3.26,14-9.63,14.82-16.69c3.83-4.14,11.53-7.14,16.47-8.73
		c4.53-1.53,9.42-1.61,14-0.23c1.8,0.54,3.5,1.33,5.07,2.36C1487.33,367.32,1491.55,374,1497.32,379.18z"/>
	<path class="st16" d="M1541.13,336.93l-14.73,3.46l-0.31-2.2c4.15-5.3,9.38-5.94,14.14-4.83L1541.13,336.93z"/>
	<path class="st16" d="M1304.42,320.15l-17.65,8.7l-0.35-3.8c6.31-3.72,16.88-7.55,17.8-7.88L1304.42,320.15z"/>
	<path class="st16" d="M1527.76,573.06c-29.8,4.7-72.21,10.83-78.94,8.78c-5.58-1.7-23.41-1.52-38.93-1
		c0.13-7.77,0.27-12.92,0.27-12.92l115.5-12C1525.66,555.92,1525.54,561.23,1527.76,573.06z"/>
	<path class="st34" d="M1557.48,566.06c0,0-98.12,16.85-108.66,13.64s-64.59,0.27-64.59,0.27c-24.33,16.3-14.17-7.76-14.17-7.76
		s-2.14-12.56,0.8-22.72c1.96-7.45,3.3-15.06,4-22.73c0,0-0.53-16,2.41-19.78c2.94-3.78,6.41-30.48,6.41-30.48
		s2.68-18.18,2.41-22.19s0.8-15.24,0.8-15.24l3.49-18.68c-20-2.67-81-40.1-81-40.1c-2.94-12.57-25.67-42-25.67-42
		c-0.33-2.47-0.96-4.9-1.87-7.22c-1.61-4.28,22.46-12.83,22.46-12.83s17.91,21.92,21.65,27.8c3.74,5.88,16.58,16.85,16.58,16.85
		c1.99-0.2,4.01,0.06,5.88,0.77c0.11,0,0.2,0.06,0.31,0.09c0.11,0.03,0,0,0,0c6,2.09,12,6.87,12,6.87
		c9.63-0.53,16.31,6.15,16.31,6.15s11-1.6,12.83,0.27c1.83,1.87,11.23,0,11.23,0s9.36-19.79,15.51-14
		c6.15,5.79,32.24,5.48,32.24,5.48c3.48-4.62,11.94-7.93,17.23-9.64c4.53-1.53,9.42-1.61,14-0.23c1.97,0.56,3.83,1.46,5.5,2.66
		l15.83,15.5c0,0,4.55-5.88,4-7.22c-0.55-1.34,5.35-2.4,5.35-2.4s7.75-2.41,10.69-3.21c2.94-0.8,5.64,2.38,5.88,2.66
		c-0.1-0.34-2.11-6.81-1.33-11.75c0.78-4.94-3.21-9.63-3.21-9.63c9.36-23,30.48-3.74,30.48-3.74s2.41,12.57,0.27,17.38
		c-2.14,4.81,2.14,15,1.6,17.64c-0.54,2.64,1.07,7.22,1.07,12.3c0,5.08-2.67,14.71-4.28,19c-1.61,4.29-14.49,13.85-14.49,13.85
		s-0.81,15.24-6.42,24.06s-2.14,39-2.14,39s5.35,23.53,12,31C1547.52,523.22,1557.48,566.06,1557.48,566.06z"/>
	<path class="st16" d="M1414.44,390.14c0,0-2.94-8.82-5.61-9.63c-2.66-0.98-5.26-2.14-7.76-3.47l1.72-3.29
		c0,0,10.05,2.75,11.65,5.69C1416.04,382.38,1414.44,390.14,1414.44,390.14z"/>
	<path class="st16" d="M1360.7,370.62c-0.53,2.68-24.33,5.08-24.33,5.08l12-12.06l0,0l0.3,0.1l0,0
		C1354.75,365.84,1360.7,370.62,1360.7,370.62z"/>
	<circle class="st29" cx="1291.85" cy="333.92" r="2.14"/>
	<circle class="st29" cx="1294.59" cy="338.2" r="2.14"/>
	<circle class="st29" cx="1297.27" cy="342.15" r="2.14"/>
	<circle class="st29" cx="1300.07" cy="346.42" r="2.14"/>
	<circle class="st29" cx="1552.09" cy="346.19" r="1.74"/>
	<circle class="st29" cx="1552.36" cy="350.13" r="1.74"/>
	<circle class="st29" cx="1552.6" cy="354.08" r="1.74"/>
	<path class="st16" d="M1414.57,462.59c-0.24-0.31,60,75.8,106.81,31.82C1521.38,494.39,1447.46,504.44,1414.57,462.59z"/>
	<path class="st16" d="M1379.95,502.16c0,0,36.06,1,39.84,11.36v10.79c-2.08,1.17-4.63,1.17-6.71,0c-3.64-2-25.44-13-33.13-7.71
		V502.16z"/>
	<path class="st34" d="M1380.62,502.16c0,0,34.49,0.94,38.1,10.83v10.29c-1.99,1.11-4.43,1.11-6.42,0
		c-3.47-1.87-24.33-12.43-31.68-7.35V502.16z"/>
	<path class="st16" d="M1399.64,423.85c0,0,4.13,10.62,14,24c6.1,8.19,13.5,15.33,21.89,21.14
		C1435.53,468.99,1400.24,428.81,1399.64,423.85z"/>
	<path class="st16" d="M1387.84,381.94c0,0,6,26,21.52,34.8L1387.84,381.94z"/>
	<path class="st16" d="M1378.61,384.57c-0.15-0.48-5.34,20.54,20,32.17C1398.6,416.74,1387.84,413.09,1378.61,384.57z"/>
	<path class="st16" d="M1536.13,367.15c-0.4,0,12.5,8.21,16,12C1552.13,379.18,1543.71,366.61,1536.13,367.15z"/>
	<path class="st28" d="M1454.5,349.2c0.45,1.64,1,3.44,2.48,4.3c0.94,0.45,1.96,0.68,3,0.67c9.7,0.6,19.79,1,28.77-2.71
		c1.67-0.6,3.17-1.59,4.37-2.9c1.59-1.95,1.9-4.6,2.54-7c1.26-4.75,3.94-9,5.88-13.51c3.25-7.65,4.34-16.04,3.15-24.26
		c-0.25-2.53-1.08-4.96-2.43-7.11c-2.58-3.67-7.26-5.16-10.67-8.08c-3.41-2.92-5.59-7.39-9.56-9.59c-3.58-2-8-1.75-12-1.07
		c-7.93,1.35-15.54,4.21-22.4,8.41c-2.3,1.42-4.83,3.05-7.49,2.55c-2.32-0.44-4-2.39-5.5-4.22c-1.9,4.36-2.72,9.12-2.39,13.86
		c0.1,0.7,0.08,1.4-0.07,2.09c-0.33,0.83-0.83,1.58-1.48,2.2c-2.39,2.78-3.89,7.18-1.52,10c1,1.22,2.61,1.89,3.61,3.13
		c1.8,2.24,1.19,5.45,1.15,8.31c-0.11,0.99,0.14,1.99,0.7,2.82c0.9,1.09,2.54,1.18,3.93,0.94s2.81-0.71,4.18-0.4
		c1.49,0.5,2.78,1.48,3.64,2.8C1450.87,336.08,1452.62,342.39,1454.5,349.2z"/>
	<g class="st35">
		<path d="M1494.19,346.11c-1.2,1.31-2.7,2.3-4.37,2.9c-9,3.74-19.07,3.31-28.77,2.7c-1.04,0.02-2.07-0.21-3-0.66
			c-1.47-0.87-2-2.66-2.48-4.3c-1.88-6.86-3.63-13.12-8.11-18.82c-0.86-1.32-2.15-2.3-3.64-2.8c-1.37-0.31-2.79,0.16-4.18,0.4
			s-3,0.15-3.93-0.94c-0.56-0.83-0.81-1.83-0.7-2.82c0-2.86,0.64-6.08-1.15-8.31c-1-1.25-2.58-1.91-3.62-3.13
			c-1.48-1.77-1.44-4.16-0.61-6.39c-1.7,2.7-2.44,6.17-0.45,8.52c1,1.23,2.61,1.89,3.61,3.14c1.79,2.23,1.19,5.45,1.15,8.31
			c-0.11,0.99,0.14,1.99,0.7,2.82c0.9,1.09,2.54,1.18,3.93,0.94s2.81-0.71,4.18-0.4c1.49,0.5,2.78,1.48,3.64,2.8
			c4.48,5.7,6.23,12,8.11,18.82c0.45,1.63,1,3.43,2.48,4.3c0.93,0.45,1.96,0.68,3,0.66c9.7,0.61,19.79,1,28.77-2.7
			c1.67-0.6,3.17-1.59,4.37-2.9c0.61-0.77,1.07-1.65,1.38-2.58C1494.4,345.82,1494.3,345.97,1494.19,346.11z"/>
		<path d="M1432.28,299.75c0.44-0.46,0.78-1.01,1-1.61c0.15-0.69,0.17-1.39,0.07-2.09c-0.26-3.9,0.24-7.81,1.49-11.51l-0.17-0.21
			c-1.9,4.36-2.72,9.11-2.39,13.86C1432.33,298.71,1432.33,299.23,1432.28,299.75z"/>
	</g>
	<path class="st16" d="M1448.82,368.48c0,0,39.75,5.27,43.32-0.7"/>
	<path class="st16" d="M1526.13,352.04c0,0,22.08,0,26.94,8.3"/>
	<path class="st13" d="M1233.31,168.96c4.67,5.92,7.49,31.51,7.49,31.51s-24.25-8.7-28.92-14.62c-4.67-5.92-3.65-14.49,2.26-19.16
		C1220.07,162.03,1228.65,163.04,1233.31,168.96L1233.31,168.96z"/>
	<path class="st13" d="M1274.39,193.99c-1.41,7.4-18.9,26.31-18.9,26.31s-9.33-24-7.9-31.41c1.41-7.4,8.55-12.26,15.95-10.85
		C1270.94,179.45,1275.8,186.59,1274.39,193.99z"/>
	<path class="st13" d="M1234.58,207.82c6.31,0.76,23.55,14.33,23.55,14.33s-19.33,9.13-25.64,8.35
		c-6.31-0.77-10.95-6.46-10.37-12.72S1228.27,207.06,1234.58,207.82z"/>
	<path class="st13" d="M1257.26,241.18c5.77,4.84,13.72,29.34,13.72,29.34s-25.5-3.59-31.27-8.45c-5.77-4.85-6.52-13.45-1.67-19.22
		C1242.89,237.08,1251.49,236.33,1257.26,241.18z"/>
</g>
<g id="Layer_6" class="st0">
	<rect x="-3.5" y="-0.5" class="st2" width="1923" height="88"/>
</g>
<g id="Layer_7" class="st0">
	<text transform="matrix(1.3787 0 0 1 81.5388 447.3738)" class="st36 st37 st38">Voter App</text>
	<text transform="matrix(1 0 0 1 150.0059 502.6978)" class="st3 st39 st40">Just some description</text>
	<rect x="69" y="575" class="st41" width="521" height="101"/>
	<text transform="matrix(1 0 0 1 196.6699 631.9375)" class="st42 st43 st40">Check it out!</text>
	<text transform="matrix(1.4596 0 0 1 38.8652 63.9902)" class="st42 st37 st44">Test</text>
	<text transform="matrix(1.2981 0 0 1 1408.8652 53.4565)" class="st42 st45 st46">home               about             contact</text>
	<rect x="6" y="1023" transform="matrix(0.9984 -0.0567 0.0567 0.9984 -59.3219 57.1809)" class="st47" width="1945" height="103"/>
</g>
<g id="Layer_8" class="st0">
	<path class="st36" d="M0,1080"/>
</g>
</svg>
